<?xml version="1.0" encoding="utf-8"?>
<!-- Generator: Adobe Illustrator 14.0.0, SVG Export Plug-In . SVG Version: 6.00 Build 43363)  -->
<!DOCTYPE svg PUBLIC "-//W3C//DTD SVG 1.1//EN" "http://www.w3.org/Graphics/SVG/1.1/DTD/svg11.dtd">
<svg version="1.1" id="レイヤー_1" xmlns="http://www.w3.org/2000/svg" xmlns:xlink="http://www.w3.org/1999/xlink" x="0px"
	 y="0px" width="196px" height="487.994px" viewBox="205.14 193.849 196 487.994"
	 enable-background="new 205.14 193.849 196 487.994" xml:space="preserve">
<g>
	<polygon points="281.049,545.498 280.555,545.003 280.309,544.508 323.197,544.508 323.693,545.003 323.528,545.498 	"/>
	<polygon points="246.721,578.755 245.98,578.672 246.474,577.52 280.309,544.508 280.555,545.003 280.062,546.238 	"/>
	<polygon points="323.528,545.498 323.693,545.003 324.185,544.839 358.761,578.508 358.27,578.672 357.526,578.755 	"/>
	<g>
		<path d="M280.544,594.375c-4.41,0-5.76-3.671-5.76-6.219c0-2.549,1.35-6.221,5.76-6.221s5.759,3.671,5.759,6.221
			C286.303,590.707,284.954,594.375,280.544,594.375z M280.544,583.35c-2.567,0-4.115,2.023-4.115,4.806
			c0,2.778,1.546,4.805,4.115,4.805c2.568,0,4.114-2.025,4.114-4.805C284.659,585.375,283.111,583.35,280.544,583.35z"/>
		<path d="M295.985,582.249h1.597v11.815h-1.597v-5.514h-6.17v5.514h-1.597v-11.815h1.597v4.886h6.17V582.249z"/>
	</g>
	<polygon points="280.062,596.618 281.049,596.618 281.049,613.167 280.555,613.658 280.062,612.424 	"/>
	<g>
		<path d="M280.544,577.667c-4.41,0-5.76-3.671-5.76-6.22c0-2.548,1.35-6.219,5.76-6.219s5.759,3.669,5.759,6.219
			C286.303,574,284.954,577.667,280.544,577.667z M280.544,566.641c-2.567,0-4.115,2.024-4.115,4.806
			c0,2.78,1.546,4.805,4.115,4.805c2.568,0,4.114-2.023,4.114-4.805S283.111,566.641,280.544,566.641z"/>
		<path d="M295.985,565.54h1.597v11.814h-1.597v-5.514h-6.17v5.514h-1.597V565.54h1.597v4.887h6.17V565.54z"/>
	</g>
	<polygon points="281.049,562.539 280.062,562.539 280.062,546.238 280.555,545.003 281.049,545.498 	"/>
	<g>
		<path d="M323.687,594.375c-4.412,0-5.76-3.671-5.76-6.219c0-2.549,1.348-6.221,5.76-6.221s5.76,3.671,5.76,6.221
			C329.446,590.707,328.096,594.375,323.687,594.375z M323.687,583.35c-2.566,0-4.112,2.023-4.112,4.806
			c0,2.778,1.546,4.805,4.112,4.805c2.57,0,4.112-2.025,4.112-4.805C327.799,585.375,326.253,583.35,323.687,583.35z"/>
		<path d="M339.128,582.249h1.599v11.815h-1.599v-5.514h-6.171v5.514h-1.595v-11.815h1.595v4.886h6.171V582.249z"/>
	</g>
	<polygon points="323.197,596.618 324.185,596.618 324.185,612.424 323.693,613.658 323.197,613.167 	"/>
	<g>
		<path fill="#E60012" d="M246.059,555.75c-4.409,0-5.759-3.671-5.759-6.22c0-2.548,1.351-6.221,5.759-6.221
			c4.411,0,5.76,3.671,5.76,6.221C251.818,552.081,250.47,555.75,246.059,555.75z M246.059,544.722
			c-2.567,0-4.115,2.023-4.115,4.807c0,2.777,1.546,4.804,4.115,4.804c2.569,0,4.114-2.023,4.114-4.804
			C250.173,546.747,248.625,544.722,246.059,544.722z"/>
	</g>
	<polygon points="245.568,558.091 246.557,558.091 246.474,577.52 245.98,578.672 245.486,578.919 	"/>
	<g>
		<path fill="#E60012" d="M358.249,616.435c-4.411,0-5.76-3.669-5.76-6.218c0-2.55,1.349-6.221,5.76-6.221
			c4.408,0,5.759,3.669,5.759,6.221C364.008,612.767,362.657,616.435,358.249,616.435z M358.249,605.41
			c-2.565,0-4.112,2.024-4.112,4.808c0,2.779,1.547,4.805,4.112,4.805c2.566,0,4.113-2.024,4.113-4.805
			C362.362,607.434,360.815,605.41,358.249,605.41z"/>
	</g>
	<polygon points="358.761,601.31 357.773,601.31 357.773,579.906 358.27,578.672 358.761,578.508 	"/>
	<g>
		<path fill="#E60012" d="M323.687,525.713c-4.412,0-5.76-3.67-5.76-6.219c0-2.548,1.348-6.222,5.76-6.222s5.76,3.671,5.76,6.222
			C329.446,522.044,328.096,525.713,323.687,525.713z M323.687,514.688c-2.566,0-4.112,2.022-4.112,4.806
			c0,2.78,1.546,4.805,4.112,4.805c2.57,0,4.112-2.023,4.112-4.805C327.799,516.714,326.253,514.688,323.687,514.688z"/>
	</g>
	<polygon points="323.197,528.042 324.185,528.042 324.185,544.839 323.693,545.003 323.197,544.508 	"/>
	<g>
		<path fill="#E60012" d="M355.362,642.394h-1.599v-11.815h5.315c2.189,0,3.505,1.414,3.505,3.324c0,1.645-0.936,3.506-3.505,3.506
			h-3.717V642.394z M355.362,636.044h3.173c1.434,0,2.402-0.528,2.402-2.124c0-1.498-1.02-1.975-2.334-1.975h-3.241V636.044
			L355.362,636.044z"/>
	</g>
	<rect x="357.773" y="618.765" fill="#E60012" width="0.99" height="9.22"/>
	<g>
		<path fill="#E60012" d="M381.969,642.706c-4.412,0-5.76-3.669-5.76-6.219c0-2.549,1.348-6.219,5.76-6.219
			c4.408,0,5.759,3.669,5.759,6.219C387.728,639.039,386.377,642.706,381.969,642.706z M381.969,631.681
			c-2.565,0-4.113,2.024-4.113,4.806c0,2.78,1.548,4.805,4.113,4.805s4.113-2.022,4.113-4.805
			C386.082,633.706,384.534,631.681,381.969,631.681z"/>
	</g>
	<rect x="365.183" y="635.474" fill="#E60012" width="8.315" height="0.99"/>
	<g>
		<path fill="#E60012" d="M334.556,642.706c-4.412,0-5.759-3.669-5.759-6.219c0-2.549,1.347-6.219,5.759-6.219
			c4.409,0,5.76,3.669,5.76,6.219C340.315,639.039,338.965,642.706,334.556,642.706z M334.556,631.681
			c-2.565,0-4.113,2.024-4.113,4.806c0,2.78,1.548,4.805,4.113,4.805s4.113-2.022,4.113-4.805
			C338.669,633.706,337.121,631.681,334.556,631.681z"/>
	</g>
	<rect x="343.039" y="637.616" fill="#E60012" width="8.068" height="0.987"/>
	<rect x="343.039" y="633.416" fill="#E60012" width="8.068" height="0.991"/>
	<g>
		<path fill="#E60012" d="M358.249,668.878c-4.411,0-5.76-3.671-5.76-6.22c0-2.548,1.349-6.221,5.76-6.221
			c4.408,0,5.759,3.672,5.759,6.221C364.008,665.209,362.657,668.878,358.249,668.878z M358.249,657.853
			c-2.565,0-4.112,2.021-4.112,4.805c0,2.779,1.547,4.805,4.112,4.805c2.566,0,4.113-2.024,4.113-4.805
			C362.362,659.877,360.815,657.853,358.249,657.853z"/>
	</g>
	<rect x="357.773" y="645.025" fill="#E60012" width="0.99" height="8.728"/>
	<g>
		<path fill="#E60012" d="M243.145,530.585h-1.597v-11.816h5.317c2.188,0,3.505,1.416,3.505,3.325c0,1.645-0.938,3.506-3.505,3.506
			h-3.72V530.585z M243.145,524.233h3.176c1.432,0,2.402-0.526,2.402-2.123c0-1.497-1.021-1.975-2.336-1.975h-3.242V524.233z"/>
	</g>
	<rect x="245.568" y="533.229" fill="#E60012" width="0.989" height="7.409"/>
	<g>
		<path fill="#E60012" d="M221.165,530.897c-4.41,0-5.76-3.67-5.76-6.218c0-2.55,1.35-6.221,5.76-6.221
			c4.41,0,5.759,3.668,5.759,6.221C226.924,527.23,225.574,530.897,221.165,530.897z M221.165,519.872
			c-2.567,0-4.114,2.022-4.114,4.806c0,2.778,1.545,4.805,4.114,4.805c2.567,0,4.114-2.024,4.114-4.805
			C225.279,521.895,223.731,519.872,221.165,519.872z"/>
	</g>
	<rect x="229.68" y="523.762" fill="#E60012" width="9.221" height="0.989"/>
	<g>
		<path fill="#E60012" d="M270.892,530.897c-4.409,0-5.759-3.67-5.759-6.218c0-2.55,1.351-6.221,5.759-6.221
			c4.411,0,5.759,3.668,5.759,6.221C276.651,527.23,275.303,530.897,270.892,530.897z M270.892,519.872
			c-2.567,0-4.114,2.022-4.114,4.806c0,2.778,1.545,4.805,4.114,4.805c2.568,0,4.115-2.024,4.115-4.805
			C275.007,521.895,273.459,519.872,270.892,519.872z"/>
	</g>
	<rect x="253.06" y="521.457" fill="#E60012" width="9.385" height="0.991"/>
	<rect x="253.06" y="525.984" fill="#E60012" width="9.385" height="0.991"/>
	<g>
		<path fill="#E60012" d="M246.059,503.653c-4.409,0-5.759-3.669-5.759-6.22c0-2.549,1.351-6.22,5.759-6.22
			c4.411,0,5.76,3.67,5.76,6.22C251.818,499.985,250.47,503.653,246.059,503.653z M246.059,492.629
			c-2.567,0-4.115,2.023-4.115,4.805c0,2.78,1.546,4.807,4.115,4.807c2.569,0,4.114-2.024,4.114-4.807
			C250.173,494.652,248.625,492.629,246.059,492.629z"/>
	</g>
	<rect x="245.568" y="505.982" fill="#E60012" width="0.989" height="10.123"/>
	<g>
		<path fill="#0D55AC" d="M230.37,461.723h1.597v11.813h-1.597v-5.512h-6.171v5.512h-1.597v-11.813h1.597v4.886h6.171V461.723z"/>
	</g>
	<g>
		<path fill="#0D55AC" d="M233.752,471.05c0-2.83,2.064-3.115,3.004-3.115c1.508,0,2.718,0.977,2.718,2.595
			c0,1.558-1.025,2.214-2.322,2.907l-0.903,0.494c-1.186,0.654-1.445,1.335-1.494,1.669h4.721v1.025h-5.945
			c0.063-1.805,0.878-2.769,2.041-3.449l1.149-0.667c0.927-0.53,1.596-0.89,1.596-2.025c0-0.693-0.446-1.569-1.717-1.569
			c-1.645,0-1.718,1.532-1.755,2.139h-1.091V471.05z"/>
	</g>
	<g>
		<path fill="#0D55AC" d="M249.651,465.276c-0.444-2.073-2.171-2.451-3.307-2.451c-2.14,0-3.868,1.58-3.868,4.689
			c0,2.782,0.988,4.92,3.916,4.92c1.037,0,2.831-0.493,3.373-3.24h1.546c-0.658,4.46-4.278,4.655-5.166,4.655
			c-2.682,0-5.314-1.744-5.314-6.285c0-3.637,2.072-6.154,5.512-6.154c3.044,0,4.623,1.892,4.853,3.868h-1.544V465.276z"/>
	</g>
	<rect x="245.568" y="479.804" fill="#0D55AC" width="0.989" height="8.725"/>
	<path fill="none" stroke="#E60012" stroke-width="0.5" d="M225.07,514.46h5.762 M389.056,628.888h5.519 M365.346,655.151h5.519"/>
	<g>
		<path fill="#0D55AC" d="M284.98,465.276c-0.444-2.073-2.171-2.451-3.306-2.451c-2.14,0-3.869,1.58-3.869,4.689
			c0,2.782,0.988,4.92,3.916,4.92c1.037,0,2.83-0.493,3.373-3.24h1.546c-0.659,4.46-4.278,4.655-5.166,4.655
			c-2.682,0-5.314-1.744-5.314-6.285c0-3.637,2.073-6.154,5.512-6.154c3.044,0,4.622,1.892,4.854,3.868h-1.545V465.276z"/>
		<path fill="#0D55AC" d="M296.358,461.723h1.597v11.813h-1.597v-5.512h-6.171v5.512h-1.597v-11.813h1.597v4.886h6.171V461.723z"/>
	</g>
	<rect x="253.801" y="466.713" fill="#0D55AC" width="19.675" height="0.99"/>
	<g>
		<path fill="#0D55AC" d="M324.771,465.276c-0.444-2.073-2.171-2.451-3.307-2.451c-2.141,0-3.867,1.58-3.867,4.689
			c0,2.782,0.986,4.92,3.916,4.92c1.036,0,2.829-0.493,3.373-3.24h1.547c-0.659,4.46-4.276,4.655-5.168,4.655
			c-2.682,0-5.318-1.744-5.318-6.285c0-3.637,2.077-6.154,5.518-6.154c3.043,0,4.625,1.892,4.853,3.868h-1.546V465.276z"/>
		<path fill="#0D55AC" d="M336.148,461.723h1.595v11.813h-1.595v-5.512h-6.173v5.512h-1.595v-11.813h1.595v4.886h6.173V461.723z"/>
	</g>
	<g>
		<path fill="#0D55AC" d="M339.511,471.05c0-2.83,2.065-3.115,3.004-3.115c1.508,0,2.721,0.977,2.721,2.595
			c0,1.558-1.026,2.214-2.325,2.907l-0.903,0.494c-1.187,0.654-1.443,1.335-1.496,1.669h4.725v1.025h-5.946
			c0.062-1.805,0.878-2.769,2.039-3.449l1.148-0.667c0.929-0.53,1.595-0.89,1.595-2.025c0-0.693-0.443-1.569-1.718-1.569
			c-1.644,0-1.718,1.532-1.756,2.139h-1.087V471.05z"/>
	</g>
	<rect x="300.56" y="466.713" fill="#0D55AC" width="12.68" height="0.99"/>
	<g>
		<path fill="#0D55AC" d="M281.521,445.191c-4.408,0-5.759-3.672-5.759-6.22c0-2.55,1.351-6.221,5.759-6.221
			c4.412,0,5.76,3.671,5.76,6.221C287.281,441.522,285.933,445.191,281.521,445.191z M281.521,434.166
			c-2.566,0-4.114,2.022-4.114,4.805c0,2.779,1.546,4.804,4.114,4.804c2.569,0,4.115-2.022,4.115-4.804
			C285.637,436.188,284.088,434.166,281.521,434.166z"/>
	</g>
	<rect x="281.049" y="447.45" fill="#0D55AC" width="0.988" height="11.359"/>
	<g>
		<path fill="#0D55AC" d="M321.288,445.191c-4.409,0-5.76-3.672-5.76-6.22c0-2.55,1.351-6.221,5.76-6.221
			c4.415,0,5.759,3.671,5.759,6.221C327.047,441.522,325.7,445.191,321.288,445.191z M321.288,434.166
			c-2.567,0-4.113,2.022-4.113,4.805c0,2.779,1.546,4.804,4.113,4.804c2.571,0,4.115-2.022,4.115-4.804
			C325.403,436.188,323.857,434.166,321.288,434.166z"/>
	</g>
	<rect x="320.812" y="447.533" fill="#0D55AC" width="0.99" height="11.278"/>
	<polygon fill="#0D55AC" points="281.049,415.015 282.038,414.603 282.038,430.079 281.049,430.079 	"/>
	<polygon fill="#0D55AC" points="320.812,415.015 321.799,414.603 321.799,430.079 320.812,430.079 	"/>
	<g>
		<path fill="#0D55AC" d="M257.828,421.497c-4.409,0-5.759-3.668-5.759-6.219s1.35-6.221,5.759-6.221
			c4.411,0,5.759,3.67,5.759,6.221S262.239,421.497,257.828,421.497z M257.828,410.473c-2.566,0-4.115,2.023-4.115,4.804
			c0,2.781,1.546,4.805,4.115,4.805c2.569,0,4.114-2.024,4.114-4.805C261.942,412.496,260.395,410.473,257.828,410.473z"/>
	</g>
	<rect x="266.313" y="416.413" fill="#0D55AC" width="15.23" height="0.99"/>
	<rect x="266.313" y="412.215" fill="#0D55AC" width="13.089" height="0.987"/>
	<g>
		<path fill="#0D55AC" d="M344.98,421.497c-4.408,0-5.759-3.668-5.759-6.219s1.351-6.221,5.759-6.221
			c4.413,0,5.761,3.67,5.761,6.221S349.394,421.497,344.98,421.497z M344.98,410.473c-2.565,0-4.111,2.023-4.111,4.804
			c0,2.781,1.546,4.805,4.111,4.805c2.569,0,4.117-2.024,4.117-4.805C349.098,412.496,347.55,410.473,344.98,410.473z"/>
	</g>
	<rect x="319.165" y="412.215" fill="#0D55AC" width="17.372" height="0.987"/>
	<rect x="321.303" y="416.413" fill="#0D55AC" width="15.23" height="0.99"/>
	<polygon fill="#0D55AC" points="268.948,403.077 270.347,403.077 282.038,414.603 281.049,415.015 	"/>
	<polygon fill="#0D55AC" points="280.803,391.305 282.202,391.305 270.347,403.077 268.948,403.077 	"/>
	<polygon fill="#0D55AC" points="268.948,379.616 270.347,379.616 282.202,391.305 280.803,391.305 	"/>
	<polygon fill="#0D55AC" points="281.049,367.678 282.038,368.09 270.347,379.616 268.948,379.616 	"/>
	<polygon fill="#0D55AC" points="308.71,403.077 310.109,403.077 321.799,414.603 320.812,415.015 	"/>
	<polygon fill="#0D55AC" points="320.563,391.305 321.963,391.305 310.109,403.077 308.71,403.077 	"/>
	<polygon fill="#0D55AC" points="308.71,379.616 310.109,379.616 321.963,391.305 320.563,391.305 	"/>
	<polygon fill="#0D55AC" points="320.563,367.925 321.963,367.925 310.109,379.616 308.71,379.616 	"/>
	<polygon fill="#0D55AC" points="308.71,356.154 310.109,356.154 321.963,367.925 320.563,367.925 	"/>
	<polygon fill="#0D55AC" points="320.563,344.463 321.963,344.463 310.109,356.154 308.71,356.154 	"/>
	<polygon fill="#0D55AC" points="308.71,332.692 310.109,332.692 321.963,344.463 320.563,344.463 	"/>
	<polygon fill="#0D55AC" points="320.563,321.001 321.963,321.001 310.109,332.692 308.71,332.692 	"/>
	<polygon fill="#0D55AC" points="308.71,309.312 310.109,309.312 321.963,321.001 320.563,321.001 	"/>
	<polygon fill="#0D55AC" points="320.563,297.539 321.963,297.539 310.109,309.312 308.71,309.312 	"/>
	<polygon fill="#0D55AC" points="308.71,285.85 310.109,285.85 321.963,297.539 320.563,297.539 	"/>
	<polygon fill="#0D55AC" points="320.563,274.076 321.963,274.076 310.109,285.85 308.71,285.85 	"/>
	<polygon fill="#0D55AC" points="308.71,262.387 310.109,262.387 321.963,274.076 320.563,274.076 	"/>
	<polygon fill="#0D55AC" points="320.563,250.615 321.963,250.615 310.109,262.387 308.71,262.387 	"/>
	<polygon fill="#0D55AC" points="308.71,238.926 310.109,238.926 321.963,250.615 320.563,250.615 	"/>
	<polygon fill="#0D55AC" points="320.563,227.236 321.963,227.236 310.109,238.926 308.71,238.926 	"/>
	<polygon fill="#0D55AC" points="309.039,215.875 309.778,215.134 321.963,227.236 320.563,227.236 	"/>
	<polygon fill="#0D55AC" points="281.049,354.589 282.038,354.177 282.038,368.09 281.049,367.678 	"/>
	<rect x="278.58" y="355.412" fill="#0D55AC" width="0.988" height="11.443"/>
	<polygon fill="#0D55AC" points="268.948,342.652 270.347,342.652 282.038,354.177 281.049,354.589 	"/>
	<polygon fill="#0D55AC" points="281.049,330.716 282.038,331.127 270.347,342.652 268.948,342.652 	"/>
	<polygon fill="#0D55AC" points="281.049,317.544 282.038,317.132 282.038,331.127 281.049,330.716 	"/>
	<rect x="278.58" y="318.367" fill="#0D55AC" width="0.988" height="11.525"/>
	<polygon fill="#0D55AC" points="268.948,305.689 270.347,305.689 282.038,317.132 281.049,317.544 	"/>
	<polygon fill="#0D55AC" points="281.049,293.752 282.038,294.164 270.347,305.689 268.948,305.689 	"/>
	<polygon fill="#0D55AC" points="281.049,280.58 282.038,280.169 282.038,294.164 281.049,293.752 	"/>
	<rect x="278.58" y="281.404" fill="#0D55AC" width="0.988" height="11.525"/>
	<polygon fill="#0D55AC" points="268.948,268.644 270.347,268.644 282.038,280.169 281.049,280.58 	"/>
	<polygon fill="#0D55AC" points="281.049,256.707 282.038,257.119 270.347,268.644 268.948,268.644 	"/>
	<polygon fill="#0D55AC" points="281.049,243.617 282.038,243.205 282.038,257.119 281.049,256.707 	"/>
	<rect x="278.58" y="244.44" fill="#0D55AC" width="0.988" height="11.444"/>
	<polygon fill="#0D55AC" points="268.948,231.68 270.347,231.68 282.038,243.205 281.049,243.617 	"/>
	<polygon fill="#0D55AC" points="280.803,219.991 282.202,219.991 270.347,231.68 268.948,231.68 	"/>
	<polygon fill="#0D55AC" points="269.277,208.548 270.018,207.89 282.202,219.991 280.803,219.991 	"/>
	<g>
		<path fill="#E60012" d="M344.492,525.401h-1.598v-11.815h5.315c2.189,0,3.505,1.416,3.505,3.324c0,1.645-0.939,3.506-3.505,3.506
			h-3.718V525.401z M344.492,519.05h3.175c1.434,0,2.401-0.527,2.401-2.123c0-1.498-1.02-1.975-2.334-1.975h-3.242V519.05
			L344.492,519.05z"/>
	</g>
	<rect x="332.173" y="518.575" fill="#E60012" width="8.065" height="0.991"/>
	<g>
		<path fill="#E60012" d="M347.38,502.008c-4.412,0-5.759-3.67-5.759-6.22c0-2.549,1.347-6.22,5.759-6.22
			c4.409,0,5.76,3.669,5.76,6.22S351.789,502.008,347.38,502.008z M347.38,490.981c-2.565,0-4.113,2.024-4.113,4.807
			c0,2.779,1.548,4.805,4.113,4.805c2.566,0,4.113-2.023,4.113-4.805C351.493,493.006,349.946,490.981,347.38,490.981z"/>
	</g>
	<rect x="344.766" y="504.337" fill="#E60012" width="0.99" height="6.585"/>
	<rect x="349.049" y="504.337" fill="#E60012" width="0.987" height="6.585"/>
	<g>
		<path fill="#E60012" d="M347.38,549.419c-4.412,0-5.759-3.668-5.759-6.217c0-2.551,1.347-6.221,5.759-6.221
			c4.409,0,5.76,3.669,5.76,6.221C353.14,545.752,351.789,549.419,347.38,549.419z M347.38,538.394
			c-2.565,0-4.113,2.023-4.113,4.806c0,2.778,1.548,4.805,4.113,4.805c2.566,0,4.113-2.024,4.113-4.805
			C351.493,540.419,349.946,538.394,347.38,538.394z"/>
	</g>
	<rect x="346.907" y="528.042" fill="#E60012" width="0.987" height="6.259"/>
	<g>
		<path fill="#E60012" d="M371.099,525.713c-4.411,0-5.759-3.67-5.759-6.219c0-2.548,1.348-6.222,5.759-6.222
			c4.412,0,5.761,3.671,5.761,6.222C376.859,522.044,375.509,525.713,371.099,525.713z M371.099,514.688
			c-2.565,0-4.112,2.022-4.112,4.806c0,2.78,1.547,4.805,4.112,4.805c2.569,0,4.113-2.023,4.113-4.805
			C375.212,516.714,373.666,514.688,371.099,514.688z"/>
	</g>
	<rect x="354.4" y="518.575" fill="#E60012" width="8.231" height="0.991"/>
	<path fill="none" stroke="#E60012" stroke-width="0.5" d="M377.367,511.087h5.515 M353.657,534.797h5.518"/>
	<g>
		<path fill="#3498D5" d="M240.983,583.606h-1.238v-6.57h-2.159v-0.923c1.502-0.103,2.119-0.247,2.488-1.762h0.909V583.606
			L240.983,583.606z"/>
	</g>
	<g>
		<path fill="#3498D5" d="M272.969,618.752c0-3.015,2.198-3.318,3.199-3.318c1.605,0,2.897,1.042,2.897,2.768
			c0,1.657-1.094,2.355-2.476,3.094l-0.962,0.525c-1.264,0.697-1.541,1.42-1.591,1.775h5.029v1.094h-6.333
			c0.066-1.922,0.934-2.949,2.172-3.671l1.223-0.712c0.988-0.567,1.699-0.948,1.699-2.16c0-0.738-0.474-1.672-1.83-1.672
			c-1.75,0-1.829,1.631-1.868,2.276L272.969,618.752L272.969,618.752z"/>
	</g>
	<g>
		<path fill="#3498D5" d="M323.525,621.32c0.2,0.015,0.408,0.027,0.608,0.027c0.894,0,1.762-0.357,1.762-1.514
			c0-0.552-0.328-1.463-1.711-1.463c-1.646,0-1.752,1.343-1.804,1.987h-1.132c0-1.355,0.553-3.027,2.984-3.027
			c1.79,0,2.858,1.027,2.858,2.436c0,1.186-0.685,1.75-1.187,1.907v0.027c0.897,0.291,1.541,0.923,1.541,2.159
			c0,1.515-0.975,2.978-3.332,2.978c-0.678,0-1.264-0.171-1.707-0.408c-1.026-0.539-1.303-1.607-1.387-2.672h1.203
			c0.035,0.866,0.251,2.04,1.974,2.04c1.185,0,2.014-0.725,2.014-1.793c0-1.551-1.366-1.695-2.158-1.695
			c-0.174,0-0.359,0.013-0.527,0.013V621.32L323.525,621.32z"/>
	</g>
	<g>
		<path fill="#3498D5" d="M365.836,580.46v2.251h-1.159v-2.251h-4.041v-1.135l4.238-5.869h0.962v6.002h1.356v0.999h-1.356V580.46z
			 M361.703,579.46h2.978v-4.2h-0.029L361.703,579.46z"/>
	</g>
	<g>
		<path fill="#3498D5" d="M316.901,536.223c0.393-0.302,0.959-0.58,1.787-0.58c1.502,0,3.046,1.055,3.046,2.963
			c0,1.027-0.46,3.253-3.357,3.253c-1.213,0-2.766-0.487-2.986-2.555h1.195c0.119,1.081,0.924,1.552,1.962,1.552
			c1.2,0,1.948-0.961,1.948-2.118c0-1.331-0.907-2.053-2.052-2.053c-0.671,0-1.28,0.313-1.714,0.879l-1-0.049l0.698-4.966h4.791
			v1.134h-3.923L316.901,536.223z"/>
	</g>
	<g>
		<path fill="#3498D5" d="M282.513,534.815c-0.145-0.813-0.591-1.419-1.592-1.419c-1.817,0-2.198,2.446-2.198,3.422l0.026,0.026
			c0.29-0.501,0.936-1.134,2.198-1.134c1.132,0,2.896,0.724,2.896,2.936c0,0.947-0.25,1.633-0.882,2.317
			c-0.487,0.538-1.039,0.896-2.342,0.896c-0.712,0-1.725-0.316-2.383-1.345c-0.552-0.866-0.711-2-0.711-3.209
			c0-2.027,0.659-4.95,3.423-4.95c1.066,0,2.581,0.579,2.699,2.46H282.513z M280.829,540.819c1.105,0,1.817-0.87,1.817-2.119
			c0-0.817-0.436-1.949-1.868-1.949c-1.278,0-1.896,0.922-1.896,2.016C278.881,539.753,279.474,540.819,280.829,540.819z"/>
	</g>
	<polygon points="280.062,612.424 280.555,613.658 280.309,614.154 245.486,578.919 245.98,578.672 246.721,578.755 	"/>
	<polygon points="323.197,613.167 323.693,613.658 323.94,614.154 280.309,614.154 280.555,613.658 281.049,613.167 	"/>
	<polygon points="357.526,578.755 358.27,578.672 357.773,579.906 323.94,614.154 323.693,613.658 324.185,612.424 	"/>
</g>
</svg>
